<svg xmlns="http://www.w3.org/2000/svg" version="1.1" xmlns:xlink="http://www.w3.org/1999/xlink" xmlns:svgjs="http://svgjs.dev/svgjs" width="128" height="128" viewBox="0 0 128 128"><g transform="matrix(0.36917562724014336,0,0,0.36917562724014336,40.06523012235166,12.221578124999994)"><svg viewBox="0 0 44 96" data-background-color="#293040" preserveAspectRatio="xMidYMid meet" height="279" width="128" xmlns="http://www.w3.org/2000/svg" xmlns:xlink="http://www.w3.org/1999/xlink"><g id="tight-bounds" transform="matrix(1,0,0,1,0.2863497434777855,0.25950000000000273)"><svg viewBox="0 0 43.42730051304443 95.481" height="95.481" width="43.42730051304443"><g><svg viewBox="0 0 43.42730051304443 95.481" height="95.481" width="43.42730051304443"><g><svg viewBox="0 0 43.42730051304443 95.481" height="95.481" width="43.42730051304443"><g id="textblocktransform"><svg viewBox="0 0 43.42730051304443 95.481" height="95.481" width="43.42730051304443" id="textblock"><g><svg viewBox="0 0 43.42730051304443 95.481" height="95.481" width="43.42730051304443"><g><svg viewBox="0 0 43.42730051304443 95.481" height="95.481" width="43.42730051304443"><g><svg xmlns="http://www.w3.org/2000/svg" xmlns:xlink="http://www.w3.org/1999/xlink" version="1.1" x="0" y="0" viewBox="0 0 100 219.864" enable-background="new 0 0 100 219.864" xml:space="preserve" id="icon-0" width="43.42730051304443" height="95.481" class="icon-icon-0" data-fill-palette-color="accent"><path d="M49.8 32.189C58.573 32.189 65.691 24.663 65.691 15.887 65.69 7.114 58.573 0 49.8 0S33.913 7.114 33.913 15.887C33.913 24.664 41.026 32.189 49.8 32.189" fill="#000000" data-fill-palette-color="accent"></path><path d="M90.84 52.224L82.379 38.996A18.2 18.2 0 0 0 72.682 36.215H60.529L50.703 51.335 40.945 36.215H27.039C24.109 36.215 21.343 36.908 18.889 38.132L9.033 53.348 0 67.294 9.033 70.907V114.719A7.41 7.41 0 0 0 16.442 122.128 7.35 7.35 0 0 0 20.523 120.892V155.727H27.067V209.689C27.067 215.31 31.627 219.864 37.245 219.864H38.166C43.785 219.864 48.344 215.31 48.344 209.689V155.727H51.563V209.683C51.563 215.299 56.122 219.864 61.732 219.864H62.654C68.275 219.864 72.829 215.3 72.829 209.683V155.727H79.478V120.958A7.395 7.395 0 0 0 90.851 114.713V70.707L100 66.548zM74.766 56.837H71.316V60.287H68.376V56.837H64.926V53.897H68.376V50.446H71.316V53.897H74.766z" fill="#000000" data-fill-palette-color="accent"></path></svg></g></svg></g></svg></g></svg></g></svg></g></svg></g><defs></defs></svg><rect width="43.42730051304443" height="95.481" fill="none" stroke="none" visibility="hidden"></rect></g></svg></g></svg>