<svg xmlns="http://www.w3.org/2000/svg" version="1.1" xmlns:xlink="http://www.w3.org/1999/xlink" xmlns:svgjs="http://svgjs.dev/svgjs" width="2000" height="444" viewBox="0 0 2000 444"><g transform="matrix(1,0,0,1,-1.2121212121212466,-0.1672089081094441)"><svg viewBox="0 0 396 88" data-background-color="#293040" preserveAspectRatio="xMidYMid meet" height="444" width="2000" xmlns="http://www.w3.org/2000/svg" xmlns:xlink="http://www.w3.org/1999/xlink"><g id="tight-bounds" transform="matrix(1,0,0,1,0.2400000000000091,0.0331405043099835)"><svg viewBox="0 0 395.52 87.93371899138005" height="87.93371899138005" width="395.52"><g><svg viewBox="0 0 524.8222461325364 116.68075422695023" height="87.93371899138005" width="395.52"><g transform="matrix(1,0,0,1,129.30224613253645,31.608536719732808)"><svg viewBox="0 0 395.52 53.46368078748461" height="53.46368078748461" width="395.52"><g id="textblocktransform"><svg viewBox="0 0 395.52 53.46368078748461" height="53.46368078748461" width="395.52" id="textblock"><g><svg viewBox="0 0 395.52 53.46368078748461" height="53.46368078748461" width="395.52"><g transform="matrix(1,0,0,1,0,0)"><svg width="395.52" viewBox="3.6 -37.85 284.42999999999995 38.45" height="53.46368078748461" data-palette-color="#ffffff"><path d="M10.4 0L3.6 0 3.6-37.25 17.5-37.25Q21.3-37.25 24.23-35.88 27.15-34.5 28.8-31.88 30.45-29.25 30.45-25.5L30.45-25.5Q30.45-21.8 28.78-19.18 27.1-16.55 24.2-15.15 21.3-13.75 17.5-13.75L17.5-13.75 10.4-13.75 10.4 0ZM10.4-31.25L10.4-19.75 17.6-19.75Q19.45-19.75 20.8-20.48 22.15-21.2 22.9-22.5 23.65-23.8 23.65-25.5L23.65-25.5Q23.65-27.25 22.9-28.53 22.15-29.8 20.8-30.53 19.45-31.25 17.6-31.25L17.6-31.25 10.4-31.25ZM42.1 0.6L42.1 0.6Q39.25 0.6 37.15-0.35 35.05-1.3 33.9-3.08 32.75-4.85 32.75-7.2L32.75-7.2Q32.75-9.45 33.75-11.23 34.75-13 36.85-14.2 38.95-15.4 42.15-15.9L42.15-15.9 51.05-17.35 51.05-12.35 43.4-11.05Q41.45-10.7 40.5-9.8 39.55-8.9 39.55-7.45L39.55-7.45Q39.55-6.05 40.62-5.23 41.7-4.4 43.3-4.4L43.3-4.4Q45.35-4.4 46.92-5.28 48.5-6.15 49.37-7.7 50.25-9.25 50.25-11.1L50.25-11.1 50.25-18.1Q50.25-19.85 48.87-21.03 47.5-22.2 45.25-22.2L45.25-22.2Q43.15-22.2 41.52-21.08 39.9-19.95 39.15-18.1L39.15-18.1 33.8-20.7Q34.6-22.85 36.32-24.43 38.05-26 40.4-26.9 42.75-27.8 45.5-27.8L45.5-27.8Q48.85-27.8 51.4-26.58 53.95-25.35 55.37-23.18 56.8-21 56.8-18.1L56.8-18.1 56.8 0 50.6 0 50.6-4.65 52-4.75Q50.95-3 49.5-1.83 48.05-0.65 46.2-0.03 44.35 0.6 42.1 0.6ZM74.75 0.3L74.75 0.3Q70.15 0.3 67.62-2.23 65.09-4.75 65.09-9.35L65.09-9.35 65.09-21.35 60.4-21.35 60.4-27.2 60.9-27.2Q62.9-27.2 64-28.25 65.09-29.3 65.09-31.3L65.09-31.3 65.09-33.4 71.65-33.4 71.65-27.2 77.9-27.2 77.9-21.35 71.65-21.35 71.65-9.7Q71.65-8.35 72.12-7.4 72.59-6.45 73.62-5.95 74.65-5.45 76.25-5.45L76.25-5.45Q76.59-5.45 77.07-5.5 77.55-5.55 78-5.6L78-5.6 78 0Q77.3 0.1 76.4 0.2 75.5 0.3 74.75 0.3ZM89.54 0L82.99 0 82.99-27.2 89.54-27.2 89.54 0ZM89.54-30.25L82.99-30.25 82.99-37.25 89.54-37.25 89.54-30.25ZM108.49 0.6L108.49 0.6Q104.29 0.6 101.14-1.3 97.99-3.2 96.24-6.45 94.49-9.7 94.49-13.65L94.49-13.65Q94.49-17.75 96.27-20.93 98.04-24.1 101.12-25.95 104.19-27.8 107.99-27.8L107.99-27.8Q111.19-27.8 113.62-26.75 116.04-25.7 117.74-23.85 119.44-22 120.34-19.63 121.24-17.25 121.24-14.5L121.24-14.5Q121.24-13.8 121.17-13.05 121.09-12.3 120.89-11.75L120.89-11.75 99.89-11.75 99.89-16.75 117.19-16.75 114.09-14.4Q114.54-16.7 113.87-18.5 113.19-20.3 111.67-21.35 110.14-22.4 107.99-22.4L107.99-22.4Q105.94-22.4 104.34-21.38 102.74-20.35 101.92-18.38 101.09-16.4 101.29-13.6L101.29-13.6Q101.09-11.1 101.97-9.18 102.84-7.25 104.57-6.2 106.29-5.15 108.54-5.15L108.54-5.15Q110.79-5.15 112.37-6.1 113.94-7.05 114.84-8.65L114.84-8.65 120.14-6.05Q119.34-4.1 117.64-2.6 115.94-1.1 113.62-0.25 111.29 0.6 108.49 0.6ZM132.74 0L126.19 0 126.19-27.2 132.34-27.2 132.34-21.85 131.84-22.8Q132.79-25.25 134.96-26.53 137.14-27.8 140.04-27.8L140.04-27.8Q143.04-27.8 145.36-26.5 147.69-25.2 148.99-22.88 150.29-20.55 150.29-17.5L150.29-17.5 150.29 0 143.74 0 143.74-15.95Q143.74-17.75 143.04-19.05 142.34-20.35 141.11-21.08 139.89-21.8 138.24-21.8L138.24-21.8Q136.64-21.8 135.39-21.08 134.14-20.35 133.44-19.05 132.74-17.75 132.74-15.95L132.74-15.95 132.74 0ZM168.24 0.3L168.24 0.3Q163.64 0.3 161.11-2.23 158.59-4.75 158.59-9.35L158.59-9.35 158.59-21.35 153.89-21.35 153.89-27.2 154.39-27.2Q156.39-27.2 157.49-28.25 158.59-29.3 158.59-31.3L158.59-31.3 158.59-33.4 165.14-33.4 165.14-27.2 171.39-27.2 171.39-21.35 165.14-21.35 165.14-9.7Q165.14-8.35 165.61-7.4 166.09-6.45 167.11-5.95 168.14-5.45 169.74-5.45L169.74-5.45Q170.09-5.45 170.56-5.5 171.04-5.55 171.49-5.6L171.49-5.6 171.49 0Q170.79 0.1 169.89 0.2 168.99 0.3 168.24 0.3ZM194.53 0.6L194.53 0.6Q190.53 0.6 187.16-0.85 183.78-2.3 181.26-4.9 178.73-7.5 177.33-11 175.93-14.5 175.93-18.65L175.93-18.65Q175.93-22.8 177.31-26.33 178.68-29.85 181.21-32.43 183.73-35 187.13-36.43 190.53-37.85 194.53-37.85L194.53-37.85Q198.53-37.85 201.71-36.5 204.88-35.15 207.08-32.93 209.28-30.7 210.23-28.05L210.23-28.05 204.13-25.2Q203.08-28 200.58-29.83 198.08-31.65 194.53-31.65L194.53-31.65Q191.03-31.65 188.36-30 185.68-28.35 184.21-25.45 182.73-22.55 182.73-18.65L182.73-18.65Q182.73-14.75 184.21-11.83 185.68-8.9 188.36-7.25 191.03-5.6 194.53-5.6L194.53-5.6Q198.08-5.6 200.58-7.43 203.08-9.25 204.13-12.05L204.13-12.05 210.23-9.2Q209.28-6.55 207.08-4.33 204.88-2.1 201.71-0.75 198.53 0.6 194.53 0.6ZM222.93 0.6L222.93 0.6Q220.08 0.6 217.98-0.35 215.88-1.3 214.73-3.08 213.58-4.85 213.58-7.2L213.58-7.2Q213.58-9.45 214.58-11.23 215.58-13 217.68-14.2 219.78-15.4 222.98-15.9L222.98-15.9 231.88-17.35 231.88-12.35 224.23-11.05Q222.28-10.7 221.33-9.8 220.38-8.9 220.38-7.45L220.38-7.45Q220.38-6.05 221.46-5.23 222.53-4.4 224.13-4.4L224.13-4.4Q226.18-4.4 227.76-5.28 229.33-6.15 230.21-7.7 231.08-9.25 231.08-11.1L231.08-11.1 231.08-18.1Q231.08-19.85 229.71-21.03 228.33-22.2 226.08-22.2L226.08-22.2Q223.98-22.2 222.36-21.08 220.73-19.95 219.98-18.1L219.98-18.1 214.63-20.7Q215.43-22.85 217.16-24.43 218.88-26 221.23-26.9 223.58-27.8 226.33-27.8L226.33-27.8Q229.68-27.8 232.23-26.58 234.78-25.35 236.21-23.18 237.63-21 237.63-18.1L237.63-18.1 237.63 0 231.43 0 231.43-4.65 232.83-4.75Q231.78-3 230.33-1.83 228.88-0.65 227.03-0.03 225.18 0.6 222.93 0.6ZM250.23 0L243.68 0 243.68-27.2 249.83-27.2 249.83-21.15 249.33-22.05Q250.28-25.1 252.3-26.3 254.33-27.5 257.18-27.5L257.18-27.5 258.78-27.5 258.78-21.7 256.43-21.7Q253.63-21.7 251.93-19.98 250.23-18.25 250.23-15.15L250.23-15.15 250.23 0ZM275.28 0.6L275.28 0.6Q271.08 0.6 267.93-1.3 264.78-3.2 263.03-6.45 261.28-9.7 261.28-13.65L261.28-13.65Q261.28-17.75 263.05-20.93 264.83-24.1 267.9-25.95 270.98-27.8 274.78-27.8L274.78-27.8Q277.98-27.8 280.4-26.75 282.83-25.7 284.53-23.85 286.23-22 287.13-19.63 288.03-17.25 288.03-14.5L288.03-14.5Q288.03-13.8 287.95-13.05 287.88-12.3 287.68-11.75L287.68-11.75 266.68-11.75 266.68-16.75 283.98-16.75 280.88-14.4Q281.33-16.7 280.65-18.5 279.98-20.3 278.45-21.35 276.93-22.4 274.78-22.4L274.78-22.4Q272.73-22.4 271.13-21.38 269.53-20.35 268.7-18.38 267.88-16.4 268.08-13.6L268.08-13.6Q267.88-11.1 268.75-9.18 269.63-7.25 271.35-6.2 273.08-5.15 275.33-5.15L275.33-5.15Q277.58-5.15 279.15-6.1 280.73-7.05 281.63-8.65L281.63-8.65 286.93-6.05Q286.13-4.1 284.43-2.6 282.73-1.1 280.4-0.25 278.08 0.6 275.28 0.6Z" opacity="1" transform="matrix(1,0,0,1,0,0)" fill="#ffffff" class="wordmark-text-0" data-fill-palette-color="primary" id="text-0"></path></svg></g></svg></g></svg></g></svg></g><g><svg viewBox="0 0 116.68075422695023 116.68075422695023" height="116.68075422695023" width="116.68075422695023"><g><svg></svg></g><g id="icon-0"><svg viewBox="0 0 116.68075422695023 116.68075422695023" height="116.68075422695023" width="116.68075422695023"><g><rect width="106.09305615820846" height="106.09305615820846" x="5.293849034370886" y="5.293849034370886" fill="#ffffff" data-fill-palette-color="accent"></rect><rect width="106.09305615820846" height="106.09305615820846" x="10.587698068741776" y="-3.552713678800501e-15" fill="#ffffff" opacity="0.5" data-fill-palette-color="accent"></rect></g><g transform="matrix(1,0,0,1,38.68500190055725,15.125282955345398)"><svg viewBox="0 0 39.310750425835714 86.43018831625943" height="86.43018831625943" width="39.310750425835714"><g><svg xmlns="http://www.w3.org/2000/svg" xmlns:xlink="http://www.w3.org/1999/xlink" version="1.1" x="0" y="0" viewBox="0 0 100 219.864" enable-background="new 0 0 100 219.864" xml:space="preserve" id="dxe-0" width="39.310750425835714" height="86.43018831625943" class="icon-dxe-0" data-fill-palette-color="quaternary"><path d="M49.8 32.189C58.573 32.189 65.691 24.663 65.691 15.887 65.69 7.114 58.573 0 49.8 0S33.913 7.114 33.913 15.887C33.913 24.664 41.026 32.189 49.8 32.189" fill="#0074d9" data-fill-palette-color="quaternary"></path><path d="M90.84 52.224L82.379 38.996A18.2 18.2 0 0 0 72.682 36.215H60.529L50.703 51.335 40.945 36.215H27.039C24.109 36.215 21.343 36.908 18.889 38.132L9.033 53.348 0 67.294 9.033 70.907V114.719A7.41 7.41 0 0 0 16.442 122.128 7.35 7.35 0 0 0 20.523 120.892V155.727H27.067V209.689C27.067 215.31 31.627 219.864 37.245 219.864H38.166C43.785 219.864 48.344 215.31 48.344 209.689V155.727H51.563V209.683C51.563 215.299 56.122 219.864 61.732 219.864H62.654C68.275 219.864 72.829 215.3 72.829 209.683V155.727H79.478V120.958A7.395 7.395 0 0 0 90.851 114.713V70.707L100 66.548zM74.766 56.837H71.316V60.287H68.376V56.837H64.926V53.897H68.376V50.446H71.316V53.897H74.766z" fill="#0074d9" data-fill-palette-color="quaternary"></path></svg></g></svg></g></svg></g></svg></g></svg></g><defs></defs></svg><rect width="395.52" height="87.93371899138005" fill="none" stroke="none" visibility="hidden"></rect></g></svg></g></svg>