<svg xmlns="http://www.w3.org/2000/svg" version="1.1" xmlns:xlink="http://www.w3.org/1999/xlink" xmlns:svgjs="http://svgjs.dev/svgjs" width="2000" height="459" viewBox="0 0 2000 459"><g transform="matrix(1,0,0,1,-1.2121212121212466,-2.3775902834833005)"><svg viewBox="0 0 396 91" data-background-color="#293040" preserveAspectRatio="xMidYMid meet" height="459" width="2000" xmlns="http://www.w3.org/2000/svg" xmlns:xlink="http://www.w3.org/1999/xlink"><g id="tight-bounds" transform="matrix(1,0,0,1,0.2400000000000091,0.4713741084901528)"><svg viewBox="0 0 395.52 90.05725178301968" height="90.05725178301968" width="395.52"><g><svg viewBox="0 0 528.9985843309744 120.44943037508982" height="90.05725178301968" width="395.52"><g transform="matrix(1,0,0,1,133.4785843309744,32.62946205744148)"><svg viewBox="0 0 395.52000000000004 55.19050626020686" height="55.19050626020686" width="395.52000000000004"><g id="textblocktransform"><svg viewBox="0 0 395.52000000000004 55.19050626020686" height="55.19050626020686" width="395.52000000000004" id="textblock"><g><svg viewBox="0 0 395.52000000000004 55.19050626020686" height="55.19050626020686" width="395.52000000000004"><g transform="matrix(1,0,0,1,0,0)"><svg width="395.52000000000004" viewBox="4.4 -37.85 275.53000000000003 38.45" height="55.19050626020686" data-palette-color="#ffffff"><path d="M8.4 0L4.4 0 4.4-37.25 17.2-37.25Q20.85-37.25 23.6-35.83 26.35-34.4 27.88-31.83 29.4-29.25 29.4-25.85L29.4-25.85Q29.4-22.45 27.88-19.9 26.35-17.35 23.63-15.93 20.9-14.5 17.2-14.5L17.2-14.5 8.4-14.5 8.4 0ZM8.4-33.5L8.4-18.25 17.4-18.25Q19.8-18.25 21.6-19.18 23.4-20.1 24.4-21.83 25.4-23.55 25.4-25.9L25.4-25.9Q25.4-28.25 24.4-29.95 23.4-31.65 21.6-32.58 19.8-33.5 17.4-33.5L17.4-33.5 8.4-33.5ZM41.75 0.6L41.75 0.6Q39.2 0.6 37.2-0.38 35.2-1.35 34.05-3.05 32.9-4.75 32.9-6.95L32.9-6.95Q32.9-9.05 33.8-10.78 34.7-12.5 36.6-13.7 38.5-14.9 41.45-15.4L41.45-15.4 51.95-17.15 51.95-13.75 42.35-12.15Q39.45-11.65 38.17-10.3 36.9-8.95 36.9-7.1L36.9-7.1Q36.9-5.3 38.32-4.05 39.75-2.8 42-2.8L42-2.8Q44.75-2.8 46.8-3.98 48.85-5.15 50-7.15 51.15-9.15 51.15-11.6L51.15-11.6 51.15-18.4Q51.15-20.8 49.4-22.3 47.65-23.8 44.85-23.8L44.85-23.8Q42.4-23.8 40.55-22.58 38.7-21.35 37.8-19.4L37.8-19.4 34.4-21.25Q35.15-22.95 36.77-24.35 38.4-25.75 40.5-26.58 42.6-27.4 44.85-27.4L44.85-27.4Q47.8-27.4 50.07-26.25 52.35-25.1 53.62-23.08 54.9-21.05 54.9-18.4L54.9-18.4 54.9 0 51.15 0 51.15-5.35 51.7-4.8Q51-3.3 49.52-2.08 48.05-0.85 46.07-0.13 44.1 0.6 41.75 0.6ZM72.34 0.3L72.34 0.3Q68.75 0.3 66.8-1.8 64.84-3.9 64.84-7.8L64.84-7.8 64.84-23.05 59.9-23.05 59.9-26.8 61.15-26.8Q62.85-26.8 63.85-27.93 64.84-29.05 64.84-30.75L64.84-30.75 64.84-33 68.59-33 68.59-26.8 74.5-26.8 74.5-23.05 68.59-23.05 68.59-7.8Q68.59-6.45 69-5.43 69.4-4.4 70.37-3.8 71.34-3.2 73-3.2L73-3.2Q73.4-3.2 73.95-3.25 74.5-3.3 74.9-3.35L74.9-3.35 74.9 0Q74.3 0.15 73.55 0.23 72.8 0.3 72.34 0.3ZM85.24 0L81.49 0 81.49-26.8 85.24-26.8 85.24 0ZM85.24-31.75L81.49-31.75 81.49-37.25 85.24-37.25 85.24-31.75ZM105.14 0.6L105.14 0.6Q101.39 0.6 98.37-1.23 95.34-3.05 93.59-6.25 91.84-9.45 91.84-13.5L91.84-13.5Q91.84-17.55 93.54-20.68 95.24-23.8 98.17-25.6 101.09-27.4 104.74-27.4L104.74-27.4Q107.64-27.4 109.92-26.33 112.19-25.25 113.79-23.43 115.39-21.6 116.24-19.33 117.09-17.05 117.09-14.65L117.09-14.65Q117.09-14.15 117.04-13.53 116.99-12.9 116.89-12.25L116.89-12.25 94.24-12.25 94.24-15.75 114.74-15.75 112.94-14.25Q113.39-17 112.32-19.18 111.24-21.35 109.24-22.63 107.24-23.9 104.74-23.9L104.74-23.9Q102.24-23.9 100.12-22.6 97.99-21.3 96.79-18.98 95.59-16.65 95.84-13.45L95.84-13.45Q95.59-10.25 96.87-7.88 98.14-5.5 100.37-4.2 102.59-2.9 105.14-2.9L105.14-2.9Q108.09-2.9 110.09-4.3 112.09-5.7 113.34-7.8L113.34-7.8 116.54-6.1Q115.74-4.3 114.09-2.78 112.44-1.25 110.17-0.33 107.89 0.6 105.14 0.6ZM127.44 0L123.69 0 123.69-26.8 127.44-26.8 127.44-21.6 126.59-21.8Q127.59-24.4 129.86-25.9 132.14-27.4 135.14-27.4L135.14-27.4Q137.99-27.4 140.26-26.1 142.54-24.8 143.86-22.53 145.19-20.25 145.19-17.4L145.19-17.4 145.19 0 141.44 0 141.44-15.95Q141.44-18.4 140.56-20.1 139.69-21.8 138.11-22.73 136.54-23.65 134.49-23.65L134.49-23.65Q132.44-23.65 130.84-22.73 129.24-21.8 128.34-20.08 127.44-18.35 127.44-15.95L127.44-15.95 127.44 0ZM162.59 0.3L162.59 0.3Q158.99 0.3 157.04-1.8 155.09-3.9 155.09-7.8L155.09-7.8 155.09-23.05 150.14-23.05 150.14-26.8 151.39-26.8Q153.09-26.8 154.09-27.93 155.09-29.05 155.09-30.75L155.09-30.75 155.09-33 158.84-33 158.84-26.8 164.74-26.8 164.74-23.05 158.84-23.05 158.84-7.8Q158.84-6.45 159.24-5.43 159.64-4.4 160.61-3.8 161.59-3.2 163.24-3.2L163.24-3.2Q163.64-3.2 164.19-3.25 164.74-3.3 165.14-3.35L165.14-3.35 165.14 0Q164.54 0.15 163.79 0.23 163.04 0.3 162.59 0.3ZM189.28 0.6L189.28 0.6Q185.33 0.6 182.03-0.83 178.73-2.25 176.31-4.83 173.88-7.4 172.53-10.9 171.18-14.4 171.18-18.6L171.18-18.6Q171.18-22.8 172.53-26.3 173.88-29.8 176.31-32.4 178.73-35 182.03-36.43 185.33-37.85 189.28-37.85L189.28-37.85Q193.08-37.85 196.11-36.5 199.13-35.15 201.21-33.02 203.28-30.9 204.18-28.55L204.18-28.55 200.43-26.9Q199.03-30.15 196.16-32.13 193.28-34.1 189.28-34.1L189.28-34.1Q185.18-34.1 181.98-32.15 178.78-30.2 176.98-26.73 175.18-23.25 175.18-18.6L175.18-18.6Q175.18-14 176.98-10.5 178.78-7 181.98-5.08 185.18-3.15 189.28-3.15L189.28-3.15Q193.28-3.15 196.16-5.1 199.03-7.05 200.43-10.3L200.43-10.3 204.18-8.65Q203.28-6.35 201.21-4.23 199.13-2.1 196.11-0.75 193.08 0.6 189.28 0.6ZM218.03 0.6L218.03 0.6Q215.48 0.6 213.48-0.38 211.48-1.35 210.33-3.05 209.18-4.75 209.18-6.95L209.18-6.95Q209.18-9.05 210.08-10.78 210.98-12.5 212.88-13.7 214.78-14.9 217.73-15.4L217.73-15.4 228.23-17.15 228.23-13.75 218.63-12.15Q215.73-11.65 214.46-10.3 213.18-8.95 213.18-7.1L213.18-7.1Q213.18-5.3 214.61-4.05 216.03-2.8 218.28-2.8L218.28-2.8Q221.03-2.8 223.08-3.98 225.13-5.15 226.28-7.15 227.43-9.15 227.43-11.6L227.43-11.6 227.43-18.4Q227.43-20.8 225.68-22.3 223.93-23.8 221.13-23.8L221.13-23.8Q218.68-23.8 216.83-22.58 214.98-21.35 214.08-19.4L214.08-19.4 210.68-21.25Q211.43-22.95 213.06-24.35 214.68-25.75 216.78-26.58 218.88-27.4 221.13-27.4L221.13-27.4Q224.08-27.4 226.36-26.25 228.63-25.1 229.91-23.08 231.18-21.05 231.18-18.4L231.18-18.4 231.18 0 227.43 0 227.43-5.35 227.98-4.8Q227.28-3.3 225.81-2.08 224.33-0.85 222.36-0.13 220.38 0.6 218.03 0.6ZM242.63 0L238.88 0 238.88-26.8 242.63-26.8 242.63-22.4 242.13-23.05Q243.08-24.95 245-26.05 246.93-27.15 249.68-27.15L249.68-27.15 251.38-27.15 251.38-23.4 249.03-23.4Q246.13-23.4 244.38-21.6 242.63-19.8 242.63-16.5L242.63-16.5 242.63 0ZM267.98 0.6L267.98 0.6Q264.23 0.6 261.2-1.23 258.18-3.05 256.43-6.25 254.68-9.45 254.68-13.5L254.68-13.5Q254.68-17.55 256.38-20.68 258.08-23.8 261-25.6 263.93-27.4 267.58-27.4L267.58-27.4Q270.48-27.4 272.75-26.33 275.03-25.25 276.63-23.43 278.23-21.6 279.08-19.33 279.93-17.05 279.93-14.65L279.93-14.65Q279.93-14.15 279.88-13.53 279.83-12.9 279.73-12.25L279.73-12.25 257.08-12.25 257.08-15.75 277.58-15.75 275.78-14.25Q276.23-17 275.15-19.18 274.08-21.35 272.08-22.63 270.08-23.9 267.58-23.9L267.58-23.9Q265.08-23.9 262.95-22.6 260.83-21.3 259.63-18.98 258.43-16.65 258.68-13.45L258.68-13.45Q258.43-10.25 259.7-7.88 260.98-5.5 263.2-4.2 265.43-2.9 267.98-2.9L267.98-2.9Q270.93-2.9 272.93-4.3 274.93-5.7 276.18-7.8L276.18-7.8 279.38-6.1Q278.58-4.3 276.93-2.78 275.28-1.25 273-0.33 270.73 0.6 267.98 0.6Z" opacity="1" transform="matrix(1,0,0,1,0,0)" fill="#ffffff" class="wordmark-text-0" data-fill-palette-color="primary" id="text-0"></path></svg></g></svg></g></svg></g></svg></g><g><svg viewBox="0 0 120.44943037508982 120.44943037508982" height="120.44943037508982" width="120.44943037508982"><g><svg></svg></g><g id="icon-0"><svg viewBox="0 0 120.44943037508982 120.44943037508982" height="120.44943037508982" width="120.44943037508982"><g><rect width="109.51975984105388" height="109.51975984105388" x="5.464835267017968" y="5.464835267017968" fill="#ffffff" data-fill-palette-color="accent"></rect><rect width="109.51975984105388" height="109.51975984105388" x="10.929670534035932" y="4.440892098500626e-15" fill="#ffffff" opacity="0.5" data-fill-palette-color="accent"></rect></g><g transform="matrix(1,0,0,1,39.93449025807844,15.613815048622754)"><svg viewBox="0 0 40.58044985893293 89.22180027784431" height="89.22180027784431" width="40.58044985893293"><g><svg xmlns="http://www.w3.org/2000/svg" xmlns:xlink="http://www.w3.org/1999/xlink" version="1.1" x="0" y="0" viewBox="0 0 100 219.864" enable-background="new 0 0 100 219.864" xml:space="preserve" id="dxe-0" width="40.58044985893293" height="89.22180027784431" class="icon-dxe-0" data-fill-palette-color="quaternary"><path d="M49.8 32.189C58.573 32.189 65.691 24.663 65.691 15.887 65.69 7.114 58.573 0 49.8 0S33.913 7.114 33.913 15.887C33.913 24.664 41.026 32.189 49.8 32.189" fill="#0074d9" data-fill-palette-color="quaternary"></path><path d="M90.84 52.224L82.379 38.996A18.2 18.2 0 0 0 72.682 36.215H60.529L50.703 51.335 40.945 36.215H27.039C24.109 36.215 21.343 36.908 18.889 38.132L9.033 53.348 0 67.294 9.033 70.907V114.719A7.41 7.41 0 0 0 16.442 122.128 7.35 7.35 0 0 0 20.523 120.892V155.727H27.067V209.689C27.067 215.31 31.627 219.864 37.245 219.864H38.166C43.785 219.864 48.344 215.31 48.344 209.689V155.727H51.563V209.683C51.563 215.299 56.122 219.864 61.732 219.864H62.654C68.275 219.864 72.829 215.3 72.829 209.683V155.727H79.478V120.958A7.395 7.395 0 0 0 90.851 114.713V70.707L100 66.548zM74.766 56.837H71.316V60.287H68.376V56.837H64.926V53.897H68.376V50.446H71.316V53.897H74.766z" fill="#0074d9" data-fill-palette-color="quaternary"></path></svg></g></svg></g></svg></g></svg></g></svg></g><defs></defs></svg><rect width="395.52" height="90.05725178301968" fill="none" stroke="none" visibility="hidden"></rect></g></svg></g></svg>